name Visual3d_SIMM_grf.mot
datacolumns 19
datarows 41
range 2.590000 2.990000
endheader
time	ground_force_vx	ground_force_vy	ground_force_vz	ground_force_px	ground_force_py	ground_force_pz	l_ground_force_vx	l_ground_force_vy	l_ground_force_vz	l_ground_force_px	l_ground_force_py	l_ground_force_pz	ground_torque_x	ground_torque_y	ground_torque_z	l_ground_torque_x	l_ground_torque_y	l_ground_torque_z
2.590000	10.188784	126.208221	-0.419887	-0.110414	0.004454	-0.049307	-23.207258	267.310028	-7.576425	0.106521	0.004367	0.230590	0.000170	-0.256720	0.000596	0.025138	2.857694	-0.048415
2.600000	9.597144	107.368919	-3.309465	-0.113447	0.003740	-0.044921	-25.573538	275.255890	-4.783884	0.105990	0.003066	0.231402	0.000181	-0.273571	0.000636	0.028165	3.201885	-0.054246
2.610000	9.010937	88.876877	-6.086608	-0.117300	0.003245	-0.040076	-28.019079	282.578308	-1.252788	0.105524	0.002003	0.231784	0.000174	-0.261547	0.000608	0.031721	3.606126	-0.061094
2.620000	8.404350	71.471054	-8.442482	-0.122433	0.002917	-0.034291	-30.282553	289.028595	2.691279	0.105158	0.001232	0.231992	0.000149	-0.224673	0.000522	0.035456	4.030625	-0.068286
2.630000	7.721441	55.768726	-10.107416	-0.129473	0.002671	-0.027072	-32.210388	294.275360	6.661393	0.104886	0.000735	0.232287	0.000112	-0.168712	0.000392	0.039027	4.436582	-0.075164
2.640000	6.894777	42.151672	-10.870789	-0.139335	0.002418	-0.017959	-33.750351	298.011292	10.277634	0.104665	0.000454	0.232880	0.000067	-0.100360	0.000233	0.042138	4.790289	-0.081156
2.650000	5.880804	30.717960	-10.651056	-0.153581	0.002103	-0.006423	-34.926899	300.079529	13.257927	0.104451	0.000324	0.233895	0.000017	-0.026327	0.000061	0.044587	5.068665	-0.085873
2.660000	4.673304	21.351347	-9.556004	-0.175403	0.001721	0.008640	-35.815697	300.545532	15.469086	0.104208	0.000289	0.235345	-0.000036	0.053737	-0.000125	0.046293	5.262657	-0.089159
2.670000	0.000000	0.000000	0.000000	0.000000	0.000000	0.000000	-36.502277	299.667511	16.915335	0.103917	0.000309	0.237159	0.000000	0.000000	0.000000	0.047279	5.374732	-0.091058
2.680000	0.000000	0.000000	0.000000	0.000000	0.000000	0.000000	-37.047997	297.803955	17.690804	0.103581	0.000358	0.239220	0.000000	0.000000	0.000000	0.047618	5.413229	-0.091710
2.690000	0.000000	0.000000	0.000000	0.000000	0.000000	0.000000	-37.478523	295.299042	17.919470	0.103218	0.000424	0.241413	0.000000	0.000000	0.000000	0.047401	5.388657	-0.091294
2.700000	0.000000	0.000000	0.000000	0.000000	0.000000	0.000000	-37.793129	292.428802	17.705414	0.102851	0.000500	0.243652	0.000000	0.000000	0.000000	0.046717	5.310891	-0.089976
2.710000	0.000000	0.000000	0.000000	0.000000	0.000000	0.000000	-37.983017	289.406464	17.128651	0.102493	0.000583	0.245884	0.000000	0.000000	0.000000	0.045642	5.188641	-0.087905
2.720000	0.000000	0.000000	0.000000	0.000000	0.000000	0.000000	-38.056568	286.413208	16.267162	0.102146	0.000673	0.248081	0.000000	0.000000	0.000000	0.044263	5.031912	-0.085250
2.730000	0.000000	0.000000	0.000000	0.000000	0.000000	0.000000	-38.043365	283.601227	15.224760	0.101796	0.000771	0.250222	0.000000	0.000000	0.000000	0.042698	4.854015	-0.082236
2.740000	0.000000	0.000000	0.000000	0.000000	0.000000	0.000000	-37.971100	281.088715	14.130898	0.101431	0.000880	0.252294	0.000000	0.000000	0.000000	0.041067	4.668576	-0.079094
2.750000	0.000000	0.000000	0.000000	0.000000	0.000000	0.000000	-37.841476	278.947601	13.102227	0.101046	0.001003	0.254292	0.000000	0.000000	0.000000	0.039454	4.485225	-0.075988
2.760000	0.000000	0.000000	0.000000	0.000000	0.000000	0.000000	-37.621696	277.177277	12.206432	0.100644	0.001143	0.256223	0.000000	0.000000	0.000000	0.037890	4.307356	-0.072975
2.770000	0.000000	0.000000	0.000000	0.000000	0.000000	0.000000	-37.250916	275.689148	11.453106	0.100234	0.001298	0.258115	0.000000	0.000000	0.000000	0.036349	4.132218	-0.070007
2.780000	0.000000	0.000000	0.000000	0.000000	0.000000	0.000000	-36.669804	274.332703	10.807980	0.099823	0.001465	0.260002	0.000000	0.000000	0.000000	0.034771	3.952822	-0.066968
2.790000	0.000000	0.000000	0.000000	0.000000	0.000000	0.000000	-35.850906	272.935394	10.218391	0.099410	0.001636	0.261918	0.000000	0.000000	0.000000	0.033086	3.761221	-0.063722
2.800000	0.000000	0.000000	0.000000	0.000000	0.000000	0.000000	-34.808434	271.343597	9.634109	0.098986	0.001803	0.263890	0.000000	0.000000	0.000000	0.031245	3.552013	-0.060178
2.810000	0.000000	0.000000	0.000000	0.000000	0.000000	0.000000	-33.590698	269.436737	9.017866	0.098533	0.001954	0.265926	0.000000	0.000000	0.000000	0.029245	3.324594	-0.056325
2.820000	0.000000	0.000000	0.000000	0.000000	0.000000	0.000000	-32.264965	267.141815	8.361961	0.098027	0.002084	0.268014	0.000000	0.000000	0.000000	0.027123	3.083383	-0.052238
2.830000	0.000000	0.000000	0.000000	0.000000	0.000000	0.000000	-30.905329	264.461090	7.697281	0.097454	0.002190	0.270126	0.000000	0.000000	0.000000	0.024961	2.837578	-0.048074
2.840000	0.000000	0.000000	0.000000	0.000000	0.000000	0.000000	-29.584896	261.465271	7.090133	0.096818	0.002277	0.272223	0.000000	0.000000	0.000000	0.022870	2.599917	-0.044047
2.850000	0.000000	0.000000	0.000000	0.000000	0.000000	0.000000	-28.369268	258.248901	6.630858	0.096136	0.002351	0.274255	0.000000	0.000000	0.000000	0.020976	2.384583	-0.040399
2.860000	0.000000	0.000000	0.000000	0.000000	0.000000	0.000000	-27.312033	254.890411	6.417996	0.095421	0.002420	0.276181	0.000000	0.000000	0.000000	0.019399	2.205274	-0.037361
2.870000	0.000000	0.000000	0.000000	0.000000	0.000000	0.000000	-26.444059	251.416214	6.539297	0.094693	0.002492	0.277978	0.000000	0.000000	0.000000	0.018229	2.072255	-0.035108
2.880000	0.000000	0.000000	0.000000	0.000000	0.000000	0.000000	-25.762520	247.775177	7.040198	0.093981	0.002572	0.279648	0.000000	0.000000	0.000000	0.017498	1.989140	-0.033700
2.890000	0.000000	0.000000	0.000000	0.000000	0.000000	0.000000	-25.233829	243.814087	7.881767	0.093314	0.002670	0.281223	0.000000	0.000000	0.000000	0.017164	1.951194	-0.033057
2.900000	-0.065274	31.899380	-4.291165	-0.244730	0.000619	0.449526	-24.806683	239.265594	8.946896	0.092721	0.002795	0.282757	-0.000110	0.165926	-0.000385	0.017128	1.947132	-0.032988
2.910000	1.064279	58.081932	-5.803520	-0.229766	0.000394	0.459134	-24.409704	233.758072	10.062336	0.092223	0.002963	0.284319	-0.000145	0.218358	-0.000507	0.017246	1.960591	-0.033216
2.920000	2.611207	91.666695	-7.408382	-0.223043	-0.000163	0.464415	-23.950153	226.864410	11.004114	0.091829	0.003189	0.285984	-0.000216	0.325429	-0.000756	0.017350	1.972399	-0.033416
2.930000	4.481850	129.856674	-8.938074	-0.219572	-0.001007	0.468464	-23.315557	218.146606	11.519173	0.091529	0.003485	0.287834	-0.000324	0.488373	-0.001135	0.017258	1.961897	-0.033238
2.940000	6.505569	169.484741	-11.100136	-0.217579	-0.001998	0.472701	-22.383799	207.212677	11.342712	0.091268	0.003846	0.289960	-0.000469	0.707289	-0.001643	0.016776	1.907160	-0.032311
2.950000	8.584919	208.223083	-14.871406	-0.216397	-0.002953	0.477570	-21.059044	193.871063	10.247148	0.090970	0.004245	0.292438	-0.000654	0.985622	-0.002290	0.015735	1.788807	-0.030306
2.960000	10.659389	244.164368	-20.152979	-0.215755	-0.003710	0.483013	-19.314001	178.213898	8.108966	0.090553	0.004637	0.295310	-0.000883	1.330895	-0.003092	0.014043	1.596422	-0.027046
2.970000	12.630703	276.034790	-25.670868	-0.215541	-0.004177	0.488929	-17.202038	160.615051	4.979092	0.089945	0.004966	0.298568	-0.001152	1.736099	-0.004033	0.011726	1.333052	-0.022584
2.980000	14.462931	303.056702	-29.999767	-0.215750	-0.004359	0.495464	-14.852388	141.657547	1.113534	0.089109	0.005176	0.302129	-0.001450	2.185083	-0.005076	0.008948	1.017203	-0.017233
2.990000	16.258425	324.653503	-32.409275	-0.216468	-0.004347	0.503063	-12.442410	122.013069	-3.064324	0.088055	0.005226	0.305879	-0.001762	2.655544	-0.006169	0.005997	0.681770	-0.011550
